<svg width="31" height="25" viewBox="0 0 31 25" fill="none" xmlns="http://www.w3.org/2000/svg">
<path d="M30.8281 21.5064C30.8281 21.2303 30.6043 21.0064 30.3281 21.0064H11.2691C11.1404 21.0064 11.0166 21.0561 10.9236 21.145L8.9043 23.0762C8.57848 23.3878 8.79904 23.9375 9.24989 23.9375H30.3281C30.6043 23.9375 30.8281 23.7137 30.8281 23.4375V21.5064Z" fill="black"/>
<path d="M18.8349 4.45979C18.6396 4.26453 18.323 4.26453 18.1278 4.45979L2.67671 19.9108C2.61762 19.9699 2.57428 20.0429 2.55066 20.123L1.93755 22.2033C1.81094 22.6329 2.26954 22.9995 2.66068 22.7813L4.38725 21.8185C4.42528 21.7973 4.46037 21.7712 4.49164 21.7409L20.1891 6.53233C20.3897 6.33803 20.3922 6.01713 20.1948 5.81968L18.8349 4.45979Z" fill="black"/>
<path d="M23.2648 0.467731C23.0695 0.272469 22.7529 0.272468 22.5577 0.467731L21.0914 1.934C20.9825 2.04294 20.9293 2.19592 20.9611 2.34665C21.0248 2.64838 21.17 3.16383 21.4594 3.47041C21.7492 3.77734 22.3119 3.99519 22.6452 4.10392C22.8095 4.1575 22.9869 4.10998 23.1113 3.99012L24.6169 2.54023C24.8184 2.34612 24.8214 2.0244 24.6236 1.82653L23.2648 0.467731Z" fill="black"/>
</svg>
